# xmcd
#
# Track frame offsets: 
#        150
#        14660
#        37526
#        57298
#        75686
#
# Disc length: 1304 seconds
#
# Revision: 0
# Processed by: cddbd v1.5.2PL0 Copyright (c) Steve Scherf et al.
# Submitted via: ExactAudioCopy v1.0b3
#
DISCID=30051605
DTITLE=Muleskinner Jones - Postcards from Deadeye
DYEAR=2008
DGENRE=Country
TTITLE0=Gunslinger
TTITLE1=Twisted, Sick and Bitter
TTITLE2=Life's Not Fair
TTITLE3=Three Horses Pig
TTITLE4=All The Good Times (Are Past And Gone)
EXTD=
EXTT0=
EXTT1=
EXTT2=
EXTT3=
EXTT4=
PLAYORDER=
